<svg version="1.1" id="Layer_1" xmlns:x="ns_extend;" xmlns:i="ns_ai;" xmlns:graph="ns_graphs;" xmlns="http://www.w3.org/2000/svg" xmlns:xlink="http://www.w3.org/1999/xlink" x="0px" y="0px" viewBox="0 0 497.4 97.1" style="enable-background:new 0 0 497.4 97.1;" xml:space="preserve">
 <style type="text/css">
  .st0{fill:url(#SVGID_1_);}
	.st1{fill:url(#SVGID_2_);}
	.st2{fill:url(#SVGID_3_);}
	.st3{fill:url(#SVGID_4_);}
	.st4{fill:url(#SVGID_5_);}
	.st5{fill:url(#SVGID_6_);}
 </style>
 <metadata>
  <sfw xmlns="ns_sfw;">
   <slices>
   </slices>
   <sliceSourceBounds bottomLeftOrigin="true" height="97.1" width="497.4" x="33.7" y="35.3">
   </sliceSourceBounds>
  </sfw>
 </metadata>
 <g>
  <g>
   <g>
    <linearGradient id="SVGID_1_" gradientUnits="userSpaceOnUse" x1="656.8853" y1="-411.2821" x2="705.2365" y2="-411.2821" gradientTransform="matrix(0 1 1 0 459.6321 -632.5853)">
     <stop offset="0" style="stop-color:#59BFFF">
     </stop>
     <stop offset="1" style="stop-color:#1039B4">
     </stop>
    </linearGradient>
    <polygon class="st0" points="24.2,48.5 48.3,24.3 72.5,48.5 48.3,72.7 			">
    </polygon>
    <linearGradient id="SVGID_2_" gradientUnits="userSpaceOnUse" x1="206.9233" y1="193.264" x2="255.2745" y2="193.264" gradientTransform="matrix(1 0 0 -1 -158.6233 265.964)">
     <stop offset="0" style="stop-color:#73DDFF">
     </stop>
     <stop offset="1" style="stop-color:#0180DD">
     </stop>
    </linearGradient>
    <polygon class="st1" points="72.5,96.9 48.3,72.7 72.5,48.5 96.7,72.7 			">
    </polygon>
    <linearGradient id="SVGID_3_" gradientUnits="userSpaceOnUse" x1="1237.3192" y1="-242.1675" x2="1285.6704" y2="-242.1675" gradientTransform="matrix(-1 0 0 1 1285.6191 314.8675)">
     <stop offset="0" style="stop-color:#017EDD">
     </stop>
     <stop offset="1" style="stop-color:#9DECFF">
     </stop>
    </linearGradient>
    <polygon class="st2" points="24.2,48.5 48.3,72.7 24.2,96.9 0,72.7 			">
    </polygon>
   </g>
   <g>
    <linearGradient id="SVGID_4_" gradientUnits="userSpaceOnUse" x1="632.7853" y1="-411.2821" x2="681.1365" y2="-411.2821" gradientTransform="matrix(0 1 1 0 459.6321 -632.5853)">
     <stop offset="0.3" style="stop-color:#FFD315">
     </stop>
     <stop offset="0.3822" style="stop-color:#FFCD1E">
     </stop>
     <stop offset="0.5162" style="stop-color:#FFBD36">
     </stop>
     <stop offset="0.6855" style="stop-color:#FFA35E">
     </stop>
     <stop offset="0.8815" style="stop-color:#FF7F94">
     </stop>
     <stop offset="1" style="stop-color:#FF67B9">
     </stop>
    </linearGradient>
    <polygon class="st3" points="24.2,24.3 48.3,0.2 72.5,24.3 48.3,48.5 			">
    </polygon>
    <linearGradient id="SVGID_5_" gradientUnits="userSpaceOnUse" x1="206.9233" y1="217.464" x2="255.2745" y2="217.464" gradientTransform="matrix(1 0 0 -1 -158.6233 265.964)">
     <stop offset="0" style="stop-color:#FF00B1">
     </stop>
     <stop offset="0.1409" style="stop-color:#F600B2">
     </stop>
     <stop offset="0.3708" style="stop-color:#DE00B5">
     </stop>
     <stop offset="0.6609" style="stop-color:#B600BA">
     </stop>
     <stop offset="0.9971" style="stop-color:#7F00C1">
     </stop>
     <stop offset="1" style="stop-color:#7F00C1">
     </stop>
    </linearGradient>
    <polygon class="st4" points="72.5,72.7 48.3,48.5 72.5,24.3 96.7,48.5 			">
    </polygon>
    <linearGradient id="SVGID_6_" gradientUnits="userSpaceOnUse" x1="1237.3192" y1="-266.3675" x2="1285.6704" y2="-266.3675" gradientTransform="matrix(-1 0 0 1 1285.6191 314.8675)">
     <stop offset="0" style="stop-color:#FF00B1">
     </stop>
     <stop offset="0.1409" style="stop-color:#F600B2">
     </stop>
     <stop offset="0.3708" style="stop-color:#DE00B5">
     </stop>
     <stop offset="0.6609" style="stop-color:#B600BA">
     </stop>
     <stop offset="0.9971" style="stop-color:#7F00C1">
     </stop>
     <stop offset="1" style="stop-color:#7F00C1">
     </stop>
    </linearGradient>
    <polygon class="st5" points="24.2,24.3 48.3,48.5 24.2,72.7 0,48.5 			">
    </polygon>
   </g>
  </g>
  <path d="M202.7,34.3c0.9,1.6,2.1,2.8,3.6,3.7c1.6,0.9,3.4,1.3,5.5,1.3c1.7,0,3.3-0.4,4.8-1.1s2.8-1.8,3.8-3.1
		c1.1-1.3,1.9-2.8,2.5-4.6c0.6-1.8,0.9-3.7,0.9-5.8c0-2-0.3-3.9-1-5.7s-1.6-3.3-2.7-4.6c-1.2-1.3-2.5-2.3-4.1-3.1
		c-1.6-0.7-3.3-1.1-5.2-1.1c-2.1,0-4,0.5-5.5,1.3c-1.5,0.9-2.8,2.1-3.9,3.7v-4.5H194V50h8.5V34.3H202.7z M202.7,21.4
		c0.6-1.2,1.4-2.1,2.5-2.8s2.2-1,3.4-1c1,0,1.9,0.2,2.7,0.5c0.8,0.4,1.5,0.8,2.1,1.5c0.6,0.6,1,1.4,1.4,2.3c0.3,0.9,0.5,1.8,0.5,2.8
		s-0.2,1.9-0.5,2.8c-0.3,0.9-0.7,1.7-1.3,2.4s-1.2,1.2-2,1.6s-1.6,0.6-2.5,0.6c-1.3,0-2.5-0.5-3.7-1.4c-1.2-1-2-2.1-2.6-3.6
		L202.7,21.4L202.7,21.4z">
  </path>
  <path d="M237.3,22c0.7-1.3,1.9-2.2,3.6-2.9c1.7-0.6,3.5-1,5.6-1v-7.7c-0.2,0-0.4-0.1-0.5-0.1h-0.9c-1.7,0-3.3,0.6-4.8,1.7
		c-1.5,1.1-2.7,2.5-3.7,4.4v-5.6h-7.8v27.9h8.5L237.3,22L237.3,22z">
  </path>
  <path d="M251.3,36.8c0.8,0.8,1.9,1.4,3.1,1.9c1.2,0.4,2.5,0.7,3.9,0.7c1.9,0,3.7-0.4,5.4-1.3c1.7-0.9,3.2-2.1,4.4-3.7l0.2,1.3
		c0.2,1.1,0.7,2,1.5,2.6s2,0.9,3.6,0.9c0.5,0,1,0,1.7-0.1c0.6-0.1,1.3-0.2,2-0.4v-7.1c-0.7-0.1-1.1-0.3-1.4-0.6
		c-0.3-0.3-0.4-0.9-0.4-1.8V22c0-3.8-1.2-6.7-3.5-8.7s-5.6-3-9.8-3c-2.2,0-4.4,0.3-6.3,0.9c-2,0.6-3.9,1.5-5.7,2.7l2.5,5.3
		c1.5-1,3-1.8,4.4-2.3c1.4-0.5,2.8-0.8,4.4-0.8c3.7,0,5.6,1.6,5.6,4.8v1.3c-0.8-0.4-1.8-0.7-2.9-0.9s-2.2-0.3-3.4-0.3
		c-1.8,0-3.4,0.2-4.8,0.7c-1.5,0.5-2.7,1.1-3.8,1.9c-1.1,0.8-1.9,1.8-2.5,2.9c-0.6,1.1-0.9,2.4-0.9,3.8c0,1.3,0.2,2.5,0.7,3.5
		C249.8,35.1,250.4,36,251.3,36.8z M258.1,26.9c1-0.7,2.3-1.1,3.9-1.1c0.7,0,1.5,0.1,2.4,0.2c0.9,0.2,1.7,0.4,2.4,0.7v2.7
		c0,0.7-0.4,1.4-1.2,2c-0.6,0.5-1.3,1-2.2,1.3c-0.9,0.3-1.8,0.5-2.7,0.5c-1.2,0-2.2-0.3-3-1s-1.2-1.5-1.2-2.5
		C256.6,28.6,257.1,27.6,258.1,26.9z">
  </path>
  <polygon points="419.7,10.9 410.6,10.9 401.2,22.5 401.2,0 392.7,0 392.7,38.8 401.2,38.8 401.2,30.7 404.2,27.6 411.5,38.8 
		420.5,38.8 409.6,22.9 	">
  </polygon>
  <rect x="423.8" y="10.9" width="8.5" height="27.9">
  </rect>
  <path d="M186.6,14.7c-1.3-1.3-2.8-2.4-4.7-3.2c-1.8-0.8-3.9-1.2-6.3-1.2c-2.4,0-4.5,0.4-6.4,1.2s-3.4,1.9-4.7,3.2s-2.2,2.9-2.9,4.6
		c-0.6,1.8-1,3.6-1,5.5s0.3,3.7,1,5.5c0.7,1.8,1.6,3.3,2.9,4.6c1.3,1.3,2.8,2.4,4.7,3.2c1.9,0.8,4,1.2,6.4,1.2s4.5-0.4,6.4-1.2
		c1.9-0.8,3.4-1.8,4.7-3.2c1.3-1.3,2.2-2.9,2.9-4.6c0.7-1.8,1-3.6,1-5.5s-0.3-3.8-1-5.5C188.8,17.6,187.8,16.1,186.6,14.7z
		 M181.3,27.8c-0.3,0.9-0.8,1.7-1.3,2.3c-0.6,0.6-1.2,1.1-1.9,1.5s-1.6,0.5-2.4,0.5c-1.8,0-3.3-0.7-4.5-2c-1.2-1.3-1.8-3.1-1.8-5.3
		c0-1.1,0.2-2,0.5-3c0.3-0.9,0.7-1.7,1.3-2.3s1.2-1.1,2-1.5s1.6-0.5,2.5-0.5c1.8,0,3.2,0.7,4.4,2s1.8,3.1,1.8,5.3
		C181.7,25.9,181.6,26.9,181.3,27.8z">
  </path>
  <path d="M490.2,10.9v4.6c-1-1.6-2.2-2.8-3.8-3.8s-3.4-1.4-5.6-1.4c-1.9,0-3.7,0.4-5.3,1.1c-1.6,0.7-3,1.8-4.1,3.1s-2,2.8-2.7,4.6
		c-0.6,1.8-1,3.7-1,5.7c0,1.9,0.3,3.8,0.9,5.5c0.6,1.7,1.4,3.2,2.5,4.5s2.4,2.3,3.9,3s3.2,1.1,5.1,1.1c1.8,0,3.6-0.4,5.2-1.2
		c1.6-0.8,2.8-2,3.7-3.5v2.7c0,1.3-0.2,2.4-0.6,3.4c-0.4,0.9-1,1.7-1.7,2.3c-0.7,0.6-1.5,1-2.5,1.3c-0.9,0.3-1.9,0.4-2.9,0.4
		c-1.7,0-3.4-0.3-4.9-1c-1.5-0.7-2.8-1.6-3.8-2.8l-4.6,4.6c1.6,1.8,3.5,3.2,5.6,4.1c2.1,1,4.7,1.4,7.7,1.4c2.4,0,4.6-0.3,6.5-1
		c2-0.6,3.7-1.5,5.1-2.7c1.4-1.2,2.5-2.6,3.3-4.3c0.8-1.7,1.2-3.6,1.2-5.7v-26C497.4,10.9,490.2,10.9,490.2,10.9z M489.1,28.3
		c-0.6,1.1-1.4,2.1-2.4,2.8s-2.2,1.1-3.5,1.1c-1,0-1.8-0.2-2.6-0.5s-1.5-0.8-2.1-1.5c-0.6-0.6-1.1-1.4-1.4-2.3
		c-0.3-0.9-0.5-1.8-0.5-2.8s0.1-1.9,0.4-2.8c0.3-0.9,0.7-1.7,1.3-2.4s1.2-1.2,2-1.6c0.8-0.4,1.6-0.6,2.5-0.6c1.3,0,2.6,0.4,3.7,1.3
		c1.2,0.9,2,2,2.6,3.5V28.3z">
  </path>
  <rect x="423.9" width="8.5" height="7.7">
  </rect>
  <path d="M357.8,71.8c-1.3-1.3-2.8-2.4-4.7-3.2c-1.8-0.8-3.9-1.2-6.3-1.2s-4.5,0.4-6.4,1.2c-1.9,0.8-3.4,1.8-4.7,3.2
		c-1.3,1.3-2.3,2.9-2.9,4.7c-0.7,1.8-1,3.7-1,5.7c0,1.9,0.3,3.7,1,5.4c0.7,1.7,1.7,3.2,2.9,4.5c1.3,1.3,2.9,2.4,4.7,3.1
		c1.9,0.8,4,1.1,6.3,1.1c3.2,0,6-0.7,8.3-2.1c2.3-1.4,4-3.2,5.1-5.4l-7.2-2c-0.4,1-1.2,1.8-2.3,2.5c-1.2,0.6-2.3,0.9-3.6,0.9
		c-1.6,0-3-0.5-4.2-1.5s-1.9-2.4-2-4.3h20.6c0.1-0.4,0.1-0.8,0.2-1.3c0-0.5,0.1-1,0.1-1.5c0-1.9-0.3-3.7-1-5.5
		C360,74.7,359,73.1,357.8,71.8z M340.6,79.3c0.2-1.7,0.8-3.1,1.9-4.2c1.1-1,2.5-1.6,4.1-1.6s3,0.5,4.1,1.5s1.7,2.4,1.9,4.2
		L340.6,79.3L340.6,79.3z">
  </path>
  <path d="M463.1,13.9c-0.6-1.1-1.5-1.9-2.6-2.6c-1.1-0.6-2.6-1-4.4-1c-2.5,0-4.6,0.5-6.5,1.4s-3.3,2.2-4.4,3.9v-4.7h-7.7v27.9h8.5
		v-16c0.2-0.7,0.6-1.4,1-2s0.9-1.1,1.5-1.6c0.6-0.4,1.2-0.8,1.8-1c0.6-0.2,1.2-0.4,1.8-0.4c1.1,0,2,0.4,2.7,1.3c0.7,0.8,1,2.2,1,4
		v15.7h8.5V20.9c0-1.2-0.1-2.4-0.3-3.6C464.1,16.1,463.7,14.9,463.1,13.9z">
  </path>
  <path d="M330.2,36.8c0.9,0.8,1.9,1.4,3.1,1.9c1.2,0.4,2.5,0.7,3.9,0.7c1.9,0,3.7-0.4,5.5-1.3c1.7-0.9,3.2-2.1,4.4-3.7l0.2,1.3
		c0.2,1.1,0.7,2,1.5,2.6s2,0.9,3.6,0.9c0.5,0,1.1,0,1.7-0.1s1.3-0.2,2-0.4v-7.1c-0.7-0.1-1.1-0.3-1.4-0.6c-0.3-0.3-0.4-0.9-0.4-1.8
		V22c0-3.8-1.2-6.7-3.5-8.7s-5.6-3-9.8-3c-2.2,0-4.3,0.3-6.3,0.9c-2,0.6-3.9,1.5-5.7,2.7l2.5,5.3c1.5-1,3-1.8,4.4-2.3
		s2.8-0.8,4.4-0.8c3.7,0,5.6,1.6,5.6,4.8v1.3c-0.8-0.4-1.8-0.7-2.9-0.9s-2.2-0.3-3.4-0.3c-1.8,0-3.4,0.2-4.8,0.7
		c-1.5,0.5-2.7,1.1-3.8,1.9c-1.1,0.8-1.9,1.8-2.5,2.9c-0.6,1.1-0.9,2.4-0.9,3.8c0,1.3,0.2,2.5,0.7,3.5
		C328.7,35.1,329.4,36,330.2,36.8z M337,26.9c1-0.7,2.3-1.1,3.9-1.1c0.7,0,1.5,0.1,2.4,0.2c0.9,0.2,1.7,0.4,2.4,0.7v2.7
		c0,0.7-0.4,1.4-1.2,2c-0.6,0.5-1.3,1-2.1,1.3c-0.9,0.3-1.8,0.5-2.7,0.5c-1.2,0-2.2-0.3-3-1s-1.2-1.5-1.2-2.5
		C335.5,28.6,336,27.6,337,26.9z">
  </path>
  <path d="M385.9,13.9c-0.6-1.1-1.4-1.9-2.6-2.6c-1.1-0.6-2.6-1-4.4-1c-2.4,0-4.6,0.5-6.5,1.4s-3.3,2.2-4.4,3.9v-4.7h-7.7v27.9h8.5
		v-16c0.2-0.7,0.6-1.4,1-2s0.9-1.1,1.5-1.6c0.6-0.4,1.2-0.8,1.8-1c0.6-0.2,1.2-0.4,1.8-0.4c1.1,0,2,0.4,2.7,1.3c0.7,0.8,1,2.2,1,4
		v15.7h8.5V20.9c0-1.2-0.1-2.4-0.3-3.6C386.9,16.1,386.5,14.9,385.9,13.9z">
  </path>
  <path d="M227.2,89.3c-0.7,0-1.3-0.2-1.8-0.6s-0.7-1.1-0.7-2V76.3h5.8l-0.2-6.6h-5.6v-8.2h-8.4v8.2h-11.4v-3c0-2.3,0.7-3.9,3.2-3.9
		c1.2,0,3.3,0.7,3.7,0.8l1.4-6c-2-0.8-5.1-1.6-6.9-1.6c-1.5,0-2.8,0.3-4,0.8s-2.2,1.3-3.1,2.3c-0.9,1-1.5,2.2-2,3.6
		s-0.7,3.4-0.7,5.1v1.9h-4l0.2,6.6h3.8v20.2h8.4V76.3h11.4v13.3c0,3.6,1.7,7.4,7.9,7.4c3.1,0,7.1-1.9,8.4-2.8l-1.4-5.6
		C230.7,89,228.7,89.3,227.2,89.3z">
  </path>
  <path d="M329.1,67.6c-1.7,0-3.3,0.6-4.8,1.7s-2.7,2.5-3.7,4.4v-5.6h-7.8V96h8.5V79.2c0.7-1.3,1.9-2.2,3.6-2.9c1.7-0.6,3.5-1,5.6-1
		v-7.7c-0.2,0-0.3-0.1-0.5-0.1L329.1,67.6L329.1,67.6z">
  </path>
  <path d="M305.9,86.3v-7.2c0-3.8-1.2-6.7-3.5-8.7s-5.6-3-9.8-3c-2.2,0-4.3,0.3-6.3,0.9s-3.9,1.5-5.7,2.7l2.5,5.3
		c1.5-1,3-1.8,4.4-2.3s2.8-0.8,4.4-0.8c3.7,0,5.6,1.6,5.6,4.8v1.3c-0.8-0.4-1.8-0.7-2.9-0.9c-1.1-0.2-2.2-0.3-3.4-0.3
		c-1.8,0-3.4,0.2-4.8,0.7s-2.7,1.1-3.8,1.9c-1.1,0.8-1.9,1.8-2.5,2.9s-0.9,2.4-0.9,3.8c0,1.3,0.3,2.5,0.7,3.5c0.5,1.1,1.2,2,2,2.8
		c0.9,0.8,1.9,1.4,3.1,1.9c1.2,0.4,2.5,0.7,3.9,0.7c1.9,0,3.7-0.4,5.5-1.3c1.7-0.9,3.2-2.1,4.4-3.7l0.2,1.3c0.2,1.1,0.7,2,1.5,2.6
		s2,0.9,3.6,0.9c0.5,0,1,0,1.6-0.1s1.3-0.2,2-0.4v-7.2c-0.7-0.1-1.1-0.3-1.4-0.6C306.1,87.8,305.9,87.2,305.9,86.3z M297.4,86.6
		c0,0.7-0.4,1.4-1.2,2c-0.6,0.5-1.3,1-2.1,1.3c-0.9,0.3-1.8,0.5-2.7,0.5c-1.2,0-2.2-0.3-3-1s-1.2-1.5-1.2-2.5c0-1.1,0.5-2.1,1.5-2.8
		c1-0.7,2.3-1.1,3.9-1.1c0.7,0,1.6,0.1,2.4,0.2c0.9,0.2,1.7,0.4,2.4,0.7L297.4,86.6L297.4,86.6z">
  </path>
  <path d="M156.4,22.7c-0.3-0.6-0.7-1.2-1.3-1.8s-1.1-1.1-1.6-1.4c-0.5-0.4-1.1-0.8-1.9-1.2c-0.8-0.4-1.4-0.8-1.9-1s-1.1-0.5-2-0.9
		c-0.8-0.4-1.8-0.8-2.9-1.3c-1.1-0.5-2.1-1.1-2.9-1.8c-0.8-0.6-1.3-1.4-1.3-2.4s0.3-1.7,0.8-2.1c0.6-0.4,1.5-0.6,2.6-0.6
		c2.8,0,6.4,0.4,10.6,1.2h0.2l1.4-7.2L156,2.1c-2.2-0.6-4.2-1-6-1.3s-3.5-0.4-5.1-0.4c-4.2,0-7.6,1-9.9,3c-2.3,2-3.5,4.7-3.5,8
		s1.3,6,3.7,7.9c1,0.8,2.5,1.7,4.7,2.7c2.1,1,3.6,1.7,4.4,2.1c0.4,0.2,0.8,0.4,1.4,0.7c0.5,0.3,0.9,0.5,1.2,0.7s0.6,0.5,1,0.9
		s0.6,0.9,0.6,1.6c0,1.6-0.3,2.6-1,3s-1.5,0.7-2.5,0.7c-3.6,0-7.6-0.9-11.9-2.6l-0.2-0.1l-0.1,0.3c-0.9,3-1.5,4.9-1.7,5.5
		c-0.2,0.5-0.3,0.8-0.4,1.1l-0.1,0.2l1.9,0.9c1.2,0.6,2.9,1.1,5,1.7c2.2,0.6,4.3,0.8,6.3,0.8c4,0,7.3-1.1,9.8-3.2
		c2.5-2.2,3.8-5,3.8-8.5C157.5,25.9,157.2,24.2,156.4,22.7z">
  </path>
  <path d="M186.6,72.4c-1.3-1.3-2.8-2.4-4.7-3.2c-1.8-0.8-3.9-1.2-6.3-1.2c-2.4,0-4.5,0.4-6.4,1.2c-1.9,0.8-3.4,1.9-4.7,3.2
		c-1.3,1.3-2.2,2.9-2.9,4.6c-0.6,1.8-1,3.6-1,5.5s0.3,3.7,1,5.5s1.6,3.3,2.9,4.6c1.3,1.3,2.8,2.4,4.7,3.2s4,1.2,6.4,1.2
		s4.5-0.4,6.4-1.2s3.4-1.8,4.7-3.2c1.3-1.3,2.2-2.9,2.9-4.6c0.7-1.8,1-3.6,1-5.5s-0.3-3.8-1-5.5C188.8,75.3,187.8,73.7,186.6,72.4z
		 M181.3,85.5c-0.3,0.9-0.8,1.7-1.3,2.3c-0.6,0.6-1.2,1.1-1.9,1.5s-1.6,0.5-2.4,0.5c-1.8,0-3.3-0.7-4.5-2s-1.8-3.1-1.8-5.3
		c0-1.1,0.2-2,0.5-3c0.3-0.9,0.7-1.7,1.3-2.3c0.6-0.6,1.2-1.1,2-1.5s1.6-0.5,2.5-0.5c1.8,0,3.2,0.7,4.4,2s1.8,3.1,1.8,5.3
		C181.7,83.6,181.6,84.6,181.3,85.5z">
  </path>
  <path d="M156.4,80.3c-0.3-0.6-0.7-1.2-1.3-1.8c-0.6-0.6-1.1-1.1-1.6-1.4c-0.5-0.4-1.1-0.8-1.9-1.2c-0.8-0.4-1.4-0.8-1.9-1
		s-1.1-0.5-2-0.9c-0.8-0.4-1.8-0.8-2.9-1.3c-1.1-0.5-2.1-1.1-2.9-1.8c-0.8-0.6-1.3-1.4-1.3-2.4s0.3-1.7,0.8-2.1
		c0.6-0.4,1.5-0.6,2.6-0.6c2.8,0,6.4,0.4,10.6,1.2h0.2l1.4-7.2l-0.2-0.1c-2.2-0.6-4.2-1-6-1.3s-3.5-0.4-5.1-0.4c-4.2,0-7.6,1-9.9,3
		c-2.3,2-3.5,4.7-3.5,8s1.3,6,3.7,7.9c1,0.8,2.5,1.7,4.7,2.7c2.1,1,3.6,1.7,4.4,2.1c0.4,0.2,0.8,0.4,1.4,0.7
		c0.5,0.3,0.9,0.5,1.2,0.7s0.6,0.5,1,0.9s0.6,0.9,0.6,1.6c0,1.6-0.3,2.6-1,3s-1.5,0.7-2.5,0.7c-3.6,0-7.6-0.9-11.9-2.6l-0.2-0.1
		l-0.1,0.3c-0.9,3-1.5,4.9-1.7,5.5c-0.2,0.5-0.3,0.8-0.4,1.1l-0.1,0.2l1.9,0.9c1.2,0.6,2.9,1.1,5,1.7c2.2,0.6,4.3,0.8,6.3,0.8
		c4,0,7.3-1.1,9.8-3.2c2.5-2.2,3.8-5,3.8-8.5C157.5,83.6,157.2,81.9,156.4,80.3z">
  </path>
  <polygon points="263.6,88.1 261,80.5 265.5,69.1 258.7,69.1 256.4,76.5 254,69.1 247.3,69.1 251.8,80.5 249.2,88.1 241.6,68.1 
		233.6,68.1 245.1,96 252.1,96 256.4,84.5 260.7,96 267.7,96 279.2,68.1 271.1,68.1 	">
  </polygon>
  <path d="M323.7,27.3c0-3.8-1.8-6.5-5.5-8V19c1.3-0.6,2.3-1.5,3.2-2.8c0.9-1.3,1.3-2.9,1.3-4.8c0-2.7-0.6-4.8-1.9-6.5
		c-0.1-0.1-0.2-0.2-0.2-0.3c-0.2-0.2-0.3-0.4-0.5-0.6c-0.2-0.2-0.4-0.4-0.6-0.6c0,0-0.1,0-0.1-0.1c-2.2-1.8-5.4-2.7-9.8-2.7
		c-3.7,0-8.5,0.2-14.1,0.6l0.3,20l-0.3,17.5c5.9,0.6,10.7,0.9,14.5,0.8c3.7,0,6.9-0.9,9.4-2.5c0.6-0.4,1.1-0.8,1.5-1.3
		C322.7,33.9,323.7,31.1,323.7,27.3z M314.6,27.6c0,1.9-0.3,3.2-0.9,4s-1.8,1.2-3.5,1.2s-4.2-0.1-6.4-0.3l-0.1-9.8h5.6
		c1.8,0,3.1,0.4,4,1.1C314.2,24.4,314.6,25.7,314.6,27.6z M312.9,15.2c-0.6,0.7-1.7,1-3.2,1h-6.1V7.6l5.7-0.2c1.6,0,2.8,0.3,3.5,1
		s1,1.8,1,3.4C313.8,13.4,313.5,14.5,312.9,15.2z">
  </path>
 </g>
</svg>